<?xml version="1.0" encoding="UTF-8" standalone="no"?>
<!-- Created with Inkscape (http://www.inkscape.org/) -->

<svg
   xmlns:dc="http://purl.org/dc/elements/1.1/"
   xmlns:cc="http://creativecommons.org/ns#"
   xmlns:rdf="http://www.w3.org/1999/02/22-rdf-syntax-ns#"
   xmlns:svg="http://www.w3.org/2000/svg"
   xmlns="http://www.w3.org/2000/svg"
   xmlns:sodipodi="http://sodipodi.sourceforge.net/DTD/sodipodi-0.dtd"
   xmlns:inkscape="http://www.inkscape.org/namespaces/inkscape"
   id="svg8220"
   version="1.1"
   inkscape:version="0.91 r13725"
   width="800"
   height="400"
   viewBox="0 0 800 400"
   sodipodi:docname="mv_insight.svg">
  <metadata
     id="metadata8226">
    <rdf:RDF>
      <cc:Work
         rdf:about="">
        <dc:format>image/svg+xml</dc:format>
        <dc:type
           rdf:resource="http://purl.org/dc/dcmitype/StillImage" />
        <dc:title></dc:title>
      </cc:Work>
    </rdf:RDF>
  </metadata>
  <defs
     id="defs8224" />
  <sodipodi:namedview
     pagecolor="#ffffff"
     bordercolor="#666666"
     borderopacity="1"
     objecttolerance="10"
     gridtolerance="10"
     guidetolerance="10"
     inkscape:pageopacity="0"
     inkscape:pageshadow="2"
     inkscape:window-width="1279"
     inkscape:window-height="691"
     id="namedview8222"
     showgrid="false"
     inkscape:zoom="0.51"
     inkscape:cx="371.9399"
     inkscape:cy="200"
     inkscape:window-x="0"
     inkscape:window-y="0"
     inkscape:window-maximized="0"
     inkscape:current-layer="svg8220" />
  <path
     id="path9637"
     style="fill:#000000"
     d="m 552.5167,271.45831 c -0.0917,-0.0917 -0.16667,-0.76665 -0.16667,-1.5 l 0,-1.33332 1.5,0 1.5,0 0,1.5 0,1.5 -1.33333,0 c -0.73335,0 -1.40835,-0.075 -1.5,-0.16668 z m 0,-6 c -0.0917,-0.0917 -0.16667,-0.76665 -0.16667,-1.5 l 0,-1.33332 1.5,0 1.5,0 0,1.5 0,1.5 -1.33333,0 c -0.73335,0 -1.40835,-0.075 -1.5,-0.16668 z m 0,-6 c -0.0917,-0.0917 -0.16667,-0.76665 -0.16667,-1.5 l 0,-1.33332 1.5,0 1.5,0 0,1.5 0,1.5 -1.33333,0 c -0.73335,0 -1.40835,-0.075 -1.5,-0.16668 z m 0,-6 c -0.0917,-0.0917 -0.16667,-0.76665 -0.16667,-1.5 l 0,-1.33332 1.5,0 1.5,0 0,1.5 0,1.5 -1.33333,0 c -0.73335,0 -1.40835,-0.075 -1.5,-0.16668 z m 0,-6 c -0.0917,-0.0916 -0.16667,-0.76665 -0.16667,-1.5 l 0,-1.33332 1.5,0 1.5,0 0,1.5 0,1.5 -1.33333,0 c -0.73335,0 -1.40835,-0.075 -1.5,-0.16668 z m -157.24647,-3.6305 c -0.19875,-0.3178 -0.73155,-1.62971 -1.18395,-2.91535 -0.5757,-1.63599 -0.97845,-2.40549 -1.34193,-2.56399 -1.12362,-0.48999 -329.952306,-88.46715 -330.166136,-88.33499 -0.1255,0.0776 -0.22818,0.30634 -0.22818,0.50839 0,0.7065 -1.46016,3.25177 -2.45143,4.27321 -3.87551,3.99345 -10.33924,4.06305 -14.24885,0.15344 -4.93736,-4.93736 -3.46994,-13.13746 2.89009,-16.15025 1.54557,-0.73214 1.89231,-0.79828 4.18519,-0.79828 2.19101,0 2.67722,0.0831 3.93386,0.67201 2.73268,1.28071 4.52191,3.17324 5.44421,5.75852 0.37423,1.04899 0.57406,1.30759 0.97478,1.26152 0.43687,-0.0502 326.618346,-87.391685 329.064516,-88.113445 0.88945,-0.26245 0.95031,-0.35901 2,-3.17464 1.03638,-2.77989 1.1133,-2.90396 1.80063,-2.90396 0.66975,0 0.76725,0.1344 1.45103,2 0.40315,1.1 0.87857,2.14763 1.0565,2.32807 0.1779,0.18043 34.84995,20.26296 77.04897,44.627825 l 76.7255,44.29975 0.0762,-1.06532 0.0762,-1.06533 1.4863,0 1.4863,0 0,1.5 0,1.5 -0.8125,0.008 c -0.67242,0.006 -0.73715,0.0515 -0.3755,0.26214 0.35565,0.20716 14.9203,-8.10755 78.25,-44.67152 42.79715,-24.709335 77.98798,-44.972195 78.20182,-45.028575 0.25908,-0.0683 0.60996,0.30376 1.05146,1.11495 l 0.66262,1.21746 -75.97272,43.861465 -75.97273,43.86148 3.23378,0.0698 3.23377,0.0697 0,1.48549 0,1.48548 -3.20175,0.0698 -3.20172,0.0698 75.9468,43.84691 75.94682,43.84692 -0.68257,1.21533 c -0.37543,0.66843 -0.76985,1.21544 -0.8765,1.21558 -0.1429,1.9e-4 -114.15935,-65.73964 -151.383,-87.28471 -2.10483,-1.21827 -3.8767,-2.21503 -3.9375,-2.21503 -0.0608,0 -0.11058,0.3375 -0.11058,0.75 0,0.74159 -0.0153,0.75 -1.36257,0.75 -0.87848,0 -1.4336,-0.11991 -1.5625,-0.33748 -0.15065,-0.25431 -18.93505,10.48267 -76.21288,43.5625 -41.8071,24.14499 -76.41235,44.13949 -76.90052,44.43224 -0.74398,0.44614 -1.02618,0.89112 -1.74395,2.75 -0.67573,1.74999 -0.9702,2.23416 -1.39615,2.29556 -0.34903,0.0503 -0.66755,-0.12642 -0.90123,-0.5 z m 84.2048,-54.30525 69.5,-40.12594 0,-1.53974 0,-1.53973 -74.375,-42.94445 C 433.69378,79.753255 400.1943,60.508415 400.15678,60.606385 c -0.0376,0.098 1.90307,5.54118 4.3125,12.096 2.4094,6.55481 4.38075,12.14745 4.38075,12.42807 0,0.73625 -0.71473,0.90156 -1.6046,0.37114 -2.04723,-1.22028 -3.46263,-1.92667 -4.74353,-2.36735 l -1.40187,-0.48232 0,31.861525 c 0,21.07436 0.0847,31.86154 0.25,31.86154 0.32757,0 0.32665,2.93278 0,3.04199 -0.16665,0.0555 -0.22965,10.76953 -0.1875,31.88674 l 0.0634,31.80309 2.02797,-0.81769 c 1.1154,-0.44974 2.58775,-1.1769 3.2719,-1.61592 1.37473,-0.88216 1.86673,-0.97554 2.31218,-0.43882 0.23915,0.28816 -0.59713,2.7935 -4.2194,12.64082 -2.48565,6.75479 -4.5186,12.32494 -4.5186,12.37811 0,0.0532 2.22187,-1.18615 4.9375,-2.75407 2.71562,-1.56791 36.2125,-20.90742 74.4375,-42.97668 z m -74.875,-41.64437 0,-1.5032 8.88747,0 8.88748,0 -0.075,1.4375 -0.075,1.4375 -8.8125,0.0657 -8.8125,0.0657 0,-1.5032 z m 20.66667,1.33013 c -0.0917,-0.0917 -0.16667,-0.76666 -0.16667,-1.5 l 0,-1.33333 8.875,0 8.875,0 0,1.5 0,1.5 -8.70833,0 c -4.7896,0 -8.78334,-0.075 -8.875,-0.16667 z m 20.58333,-1.33333 0,-1.5 8.875,0 8.875,0 0,1.5 0,1.5 -8.875,0 -8.875,0 0,-1.5 z m 20.75,0 0,-1.5064 8.8125,0.0657 8.8125,0.0657 0,1.375 0,1.375 -8.8125,0.0657 -8.8125,0.0657 0,-1.5064 z m 20.66667,1.33333 c -0.0917,-0.0917 -0.16667,-0.76666 -0.16667,-1.5 l 0,-1.33333 8.875,0 8.875,0 0,1.5 0,1.5 -8.70833,0 c -4.7896,0 -8.78334,-0.075 -8.875,-0.16667 z m 20.58333,-1.33333 0,-1.5 8.875,0 8.875,0 0,1.5 0,1.5 -8.875,0 -8.875,0 0,-1.5 z m 20.75,0 0,-1.5 8.75,0 8.75,0 0,1.5 0,1.5 -8.75,0 -8.75,0 0,-1.5 z m -136.86893,86.5625 c -1.98597,-5.03899 -8.62617,-23.57409 -8.57562,-23.9375 0.11257,-0.8094 1.03337,-0.7219 2.5391,0.2413 1.53273,0.98048 4.89768,2.41801 5.20928,2.22543 0.10789,-0.0667 0.19617,-14.4021 0.19617,-31.85649 l 0,-31.73524 -3.625,0 -3.625,0 0,-1.5 0,-1.5 3.625,0 3.625,0 0,-31.89185 0,-31.891845 -0.5625,0.17373 c -1.7301,0.53431 -3.28305,1.22395 -4.7542,2.11124 -0.91075,0.5493 -1.82688,0.99873 -2.0358,0.99873 -1.10658,0 -0.90393,-0.73452 3.53702,-12.82036 2.41321,-6.56745 4.33121,-11.99724 4.26225,-12.06621 -0.069,-0.069 -72.14027,19.17105 -160.15843,42.755585 -88.01817,23.58454 -160.090476,42.88098 -160.160686,42.88098 -0.0702,0 -0.12765,0.53915 -0.12765,1.1981 l 0,1.19811 160.062496,42.90821 c 88.03437,23.59951 160.21515,42.91662 160.40175,42.92689 0.22427,0.0123 0.2808,-0.12958 0.16682,-0.41881 z m -317.631066,-86.5625 0,-1.5 8.75,0 8.75,0 0,1.5 0,1.5 -8.75,0 -8.75,0 0,-1.5 z m 20.5,0 0,-1.5 8.874996,0 8.875,0 0,1.5 0,1.5 -8.875,0 -8.874996,0 0,-1.5 z m 20.749996,0.003 0,-1.5032 8.88747,0 8.88748,0 -0.075,1.4375 -0.075,1.4375 -8.8125,0.0657 -8.8125,0.0657 0,-1.5032 z m 20.60138,1.1504 c -0.0731,-0.19052 -0.0977,-0.83739 -0.0547,-1.4375 l 0.0783,-1.0911 8.8125,-0.0657 8.8125,-0.0657 0,1.5032 0,1.5032 -8.75785,0 c -7.23275,0 -8.78099,-0.0603 -8.89077,-0.3464 z m 20.64862,-1.1534 0,-1.5 8.875,0 8.875,0 0,1.5 0,1.5 -8.875,0 -8.875,0 0,-1.5 z m 20.75,0.003 0,-1.5032 8.88747,0 8.88748,0 -0.075,1.4375 -0.075,1.4375 -8.8125,0.0657 -8.8125,0.0657 0,-1.5032 z m 20.66667,1.33013 c -0.0917,-0.0917 -0.16667,-0.76666 -0.16667,-1.5 l 0,-1.33333 8.875,0 8.875,0 0,1.5 0,1.5 -8.70833,0 c -4.78959,0 -8.78334,-0.075 -8.875,-0.16667 z m 20.58333,-1.33313 0,-1.5 8.875,0 8.875,0 0,1.5 0,1.5 -8.875,0 -8.875,0 0,-1.5 z m 20.75,0 0,-1.5 8.75,0 8.75,0 0,1.5 0,1.5 -8.75,0 -8.75,0 0,-1.5 z m 20.5,0 0,-1.5 8.875,0 8.875,0 0,1.5 0,1.5 -8.875,0 -8.875,0 0,-1.5 z m 20.75,0 0,-1.5 8.875,0 8.875,0 0,1.5 0,1.5 -8.875,0 -8.875,0 0,-1.5 z m 20.75,0 0,-1.5 8.75,0 8.75,0 0,1.5 0,1.5 -8.75,0 -8.75,0 0,-1.5 z m 20.5,0 0,-1.5 8.875,0 8.875,0 0,1.5 0,1.5 -8.875,0 -8.875,0 0,-1.5 z m 20.75,0 0,-1.5 8.875,0 8.875,0 0,1.5 0,1.5 -8.875,0 -8.875,0 0,-1.5 z m 20.75,0 0,-1.5 8.75,0 8.75,0 0,1.5 0,1.5 -8.75,0 -8.75,0 0,-1.5 z m 189.16667,93.58333 c -0.0917,-0.0917 -0.16667,-0.76666 -0.16667,-1.5 l 0,-1.33333 1.5,0 1.5,0 0,1.5 0,1.5 -1.33333,0 c -0.73335,0 -1.40835,-0.075 -1.5,-0.16667 z m 0,-6 c -0.0917,-0.0917 -0.16667,-0.76666 -0.16667,-1.5 l 0,-1.33333 1.5,0 1.5,0 0,1.5 0,1.5 -1.33333,0 c -0.73335,0 -1.40835,-0.075 -1.5,-0.16667 z m 0,-6 c -0.0917,-0.0917 -0.16667,-0.76666 -0.16667,-1.5 l 0,-1.33333 1.5,0 1.5,0 0,1.5 0,1.5 -1.33333,0 c -0.73335,0 -1.40835,-0.075 -1.5,-0.16667 z m 0,-6 c -0.0917,-0.0917 -0.16667,-0.76666 -0.16667,-1.5 l 0,-1.33333 1.5,0 1.5,0 0,1.5 0,1.5 -1.33333,0 c -0.73335,0 -1.40835,-0.075 -1.5,-0.16667 z m 0,-6 c -0.0917,-0.0917 -0.16667,-0.76666 -0.16667,-1.5 l 0,-1.33333 1.5,0 1.5,0 0,1.5 0,1.5 -1.33333,0 c -0.73335,0 -1.40835,-0.075 -1.5,-0.16667 z m 0,-6 c -0.0917,-0.0917 -0.16667,-0.76666 -0.16667,-1.5 l 0,-1.33333 1.5,0 1.5,0 0,1.5 0,1.5 -1.33333,0 c -0.73335,0 -1.40835,-0.075 -1.5,-0.16667 z m 0,-6 c -0.0917,-0.0917 -0.16667,-0.76666 -0.16667,-1.5 l 0,-1.33333 1.5,0 1.5,0 0,1.5 0,1.5 -1.33333,0 c -0.73335,0 -1.40835,-0.075 -1.5,-0.16667 z m 0,-6 c -0.0917,-0.0917 -0.16667,-0.76666 -0.16667,-1.5 l 0,-1.33333 1.5,0 1.5,0 0,1.5 0,1.5 -1.33333,0 c -0.73335,0 -1.40835,-0.075 -1.5,-0.16667 z m 0,-6 c -0.0917,-0.0917 -0.16667,-0.76666 -0.16667,-1.5 l 0,-1.33333 1.5,0 1.5,0 0,1.5 0,1.5 -1.33333,0 c -0.73335,0 -1.40835,-0.075 -1.5,-0.16667 z m 0,-6 c -0.0917,-0.0917 -0.16667,-0.76666 -0.16667,-1.5 l 0,-1.33333 1.5,0 1.5,0 0,1.5 0,1.5 -1.33333,0 c -0.73335,0 -1.40835,-0.075 -1.5,-0.16667 z m 0,-6 c -0.0917,-0.0917 -0.16667,-0.76666 -0.16667,-1.5 l 0,-1.33333 1.5,0 1.5,0 0,1.5 0,1.5 -1.33333,0 c -0.73335,0 -1.40835,-0.075 -1.5,-0.16667 z m 0,-6 c -0.0917,-0.0917 -0.16667,-0.76666 -0.16667,-1.5 l 0,-1.33333 1.5,0 1.5,0 0,1.5 0,1.5 -1.33333,0 c -0.73335,0 -1.40835,-0.075 -1.5,-0.16667 z m 0,-6 c -0.0917,-0.0917 -0.16667,-0.76666 -0.16667,-1.5 l 0,-1.33333 1.5,0 1.5,0 0,1.5 0,1.5 -1.33333,0 c -0.73335,0 -1.40835,-0.075 -1.5,-0.16667 z m 0,-6 c -0.0917,-0.0917 -0.16667,-0.76666 -0.16667,-1.5 l 0,-1.33333 1.5,0 1.5,0 0,1.5 0,1.5 -1.33333,0 c -0.73335,0 -1.40835,-0.075 -1.5,-0.16667 z m 0,-6 c -0.0917,-0.0917 -0.16667,-0.76666 -0.16667,-1.5 l 0,-1.33333 1.5,0 1.5,0 0,1.5 0,1.5 -1.33333,0 c -0.73335,0 -1.40835,-0.075 -1.5,-0.16667 z m 17.33333,-9.58333 0,-1.5 8.875,0 8.875,0 0,1.5 0,1.5 -8.875,0 -8.875,0 0,-1.5 z m 20.75,0 0,-1.5 8.75,0 8.75,0 0,1.5 0,1.5 -8.75,0 -8.75,0 0,-1.5 z m 20.5,0 0,-1.5 8.875,0 8.875,0 0,1.5 0,1.5 -8.875,0 -8.875,0 0,-1.5 z m 20.75,0 0,-1.5 8.875,0 8.875,0 0,1.5 0,1.5 -8.875,0 -8.875,0 0,-1.5 z m 20.75,0 0,-1.5 8.75,0 8.75,0 0,1.5 0,1.5 -8.75,0 -8.75,0 0,-1.5 z m 20.5,0 0,-1.5 8.875,0 8.875,0 0,1.5 0,1.5 -8.875,0 -8.875,0 0,-1.5 z m 20.75,0.003 0,-1.5032 8.88747,0 8.88748,0 -0.075,1.4375 -0.075,1.4375 -8.8125,0.0657 -8.8125,0.0657 0,-1.5032 z m 20.66668,1.33013 c -0.0917,-0.0917 -0.16668,-0.76666 -0.16668,-1.5 l 0,-1.33333 8.875,0 8.875,0 0,1.5 0,1.5 -8.70832,0 c -4.7896,0 -8.78335,-0.075 -8.875,-0.16667 z m 20.58332,-1.33313 0,-1.5 2,0 2,0 0,1.5 0,1.5 -2,0 -2,0 0,-1.5 z M 552.5167,139.45832 c -0.0917,-0.0917 -0.16667,-0.76666 -0.16667,-1.5 l 0,-1.33333 1.5,0 1.5,0 0,1.5 0,1.5 -1.33333,0 c -0.73335,0 -1.40835,-0.075 -1.5,-0.16667 z m 0,-6 c -0.0917,-0.0917 -0.16667,-0.76666 -0.16667,-1.5 l 0,-1.33333 1.5,0 1.5,0 0,1.5 0,1.5 -1.33333,0 c -0.73335,0 -1.40835,-0.075 -1.5,-0.16667 z m 0,-6 c -0.0917,-0.0917 -0.16667,-0.76666 -0.16667,-1.5 l 0,-1.33333 1.5,0 1.5,0 0,1.5 0,1.5 -1.33333,0 c -0.73335,0 -1.40835,-0.075 -1.5,-0.16667 z m -528.916666,-12.58333 0,-9.52875 1.0625,0.0769 c 0.99496,0.072 1.07044,0.13034 1.1875,0.91808 l 0.125,0.84121 0.5,-0.56402 c 0.7316,-0.82527 2.33854,-1.48242 3.625,-1.48242 3.75092,0 6.15061,3.81198 5.46892,8.68755 -0.25998,1.85942 -0.86426,3.12949 -2.00951,4.22364 -1.04694,1.00019 -1.90649,1.32781 -3.48372,1.32781 -1.49114,0 -2.63136,-0.44747 -3.47569,-1.36401 l -0.625,-0.67845 -0.125,3.45873 -0.125,3.45873 -1.0625,0.0769 -1.0625,0.0768 0,-9.52875 z m 7.97835,2.05468 c 1.30764,-0.97458 1.64665,-1.94645 1.64665,-4.72064 0,-2.42542 -0.0345,-2.59026 -0.75913,-3.625 -1.83884,-2.62588 -5.47892,-1.91776 -6.35487,1.23622 -0.62522,2.2512 -0.1837,5.38426 0.93603,6.64225 1.07378,1.20635 3.23988,1.42967 4.53132,0.46717 z m 520.938316,4.52865 c -0.0917,-0.0917 -0.16667,-0.76666 -0.16667,-1.5 l 0,-1.33333 1.5,0 1.5,0 0,1.5 0,1.5 -1.33333,0 c -0.73335,0 -1.40835,-0.075 -1.5,-0.16667 z m -510.164096,-2.4122 c -1.24199,-0.39552 -2.84557,-2.09829 -3.33852,-3.54504 -0.47461,-1.39289 -0.54795,-4.49358 -0.14194,-6.00109 0.39619,-1.47106 1.41589,-2.81731 2.71034,-3.57831 0.98532,-0.57926 1.41777,-0.67109 3.14255,-0.66736 2.98814,0.006 4.51467,0.94983 5.66165,3.49879 0.80029,1.7785 0.7997,5.21637 -0.001,6.99688 -1.1358,2.52505 -2.83348,3.6273 -5.53546,3.59399 -0.89375,-0.011 -2.01759,-0.14506 -2.49743,-0.29786 z m 3.86389,-1.77645 c 1.40807,-0.58833 2.19743,-2.07004 2.33088,-4.3753 0.20198,-3.489 -1.00888,-5.59784 -3.32234,-5.78624 -1.45368,-0.11838 -1.97193,0.055 -2.88039,0.96342 -1.16132,1.16132 -1.5913,2.60072 -1.43491,4.80344 0.15874,2.23563 0.90919,3.64664 2.26747,4.2633 1.26161,0.57277 1.91525,0.60103 3.03929,0.13138 z m 8.63354,-5.03405 0,-6.88938 1.0625,0.0769 1.0625,0.0769 0.0665,6.8125 0.0665,6.8125 -1.12902,0 -1.12902,0 0,-6.88937 z m 6.75,0.0144 0,-6.875 1.125,0 1.125,0 0,1.04904 0,1.04904 0.8125,-0.78637 c 2.461,-2.38185 6.26266,-1.98307 7.68074,0.8057 0.60528,1.19032 0.63529,1.46017 0.71611,6.4375 l 0.0843,5.19509 -1.14685,0 -1.14685,0 -0.001,-4.4375 c -0.002,-4.77632 -0.20758,-6.0442 -1.13281,-6.96943 -0.78596,-0.78597 -2.84899,-0.83008 -4.06783,-0.087 -1.5111,0.9213 -1.78622,2.00436 -1.79247,7.0564 l -0.005,4.4375 -1.125,0 -1.125,0 0,-6.875 z m 18.4854,6.63794 c -2.28789,-0.69424 -2.4854,-1.26085 -2.4854,-7.12991 l 0,-4.63303 -0.875,0 c -0.83333,0 -0.875,-0.0417 -0.875,-0.875 0,-0.83333 0.0417,-0.875 0.875,-0.875 l 0.875,0 0,-1.875 0,-1.875 1.125,0 1.125,0 0,1.875 0,1.875 2.25,0 2.25,0 0,0.875 0,0.875 -2.25,0 -2.25,0 0,4.58625 c 0,5.51237 -0.0493,5.41375 2.70718,5.41375 l 1.79282,0 0,1 0,1 -1.8125,-0.0215 c -0.99688,-0.0118 -2.10032,-0.10882 -2.4521,-0.21557 z m 472.431276,-3.42961 c -0.0917,-0.0917 -0.16668,-0.76666 -0.16668,-1.5 l 0,-1.33333 1.5,0 1.5,0 0,1.5 0,1.5 -1.33332,0 c -0.73335,0 -1.40835,-0.075 -1.5,-0.16667 z m 0,-6 c -0.0917,-0.0917 -0.16668,-0.76666 -0.16668,-1.5 l 0,-1.33333 1.5,0 1.5,0 0,1.5 0,1.5 -1.33332,0 c -0.73335,0 -1.40835,-0.075 -1.5,-0.16667 z m 0,-6 c -0.0917,-0.0917 -0.16668,-0.76666 -0.16668,-1.5 l 0,-1.33333 1.5,0 1.5,0 0,1.5 0,1.5 -1.33332,0 c -0.73335,0 -1.40835,-0.075 -1.5,-0.16667 z m -497.666676,-1.95833 0,-1.375 1.125,0 1.125,0 0,1.375 0,1.375 -1.125,0 -1.125,0 0,-1.375 z m -9.5,-9.340175 c 0,-1.0046 0.0241,-1.03482 0.82722,-1.03482 0.45497,0 1.04559,-0.15955 1.3125,-0.35455 0.45835,-0.33488 0.49222,-0.80314 0.61028,-8.4375 l 0.125,-8.08295 1.07524,-0.0775 1.07523,-0.0775 -0.0752,8.20249 c -0.0668,7.28046 -0.12489,8.29336 -0.51697,9.01077 -0.54061,0.98921 -1.56478,1.54665 -3.1967,1.73992 l -1.23656,0.14645 0,-1.03482 z m -25.375,-4.33646 c -1.27295,-0.44496 -2.35211,-1.42213 -3.06615,-2.77636 -0.62509,-1.18555 -0.68385,-1.53332 -0.68385,-4.047 0,-2.61464 0.0382,-2.81768 0.77652,-4.125 1.39924,-2.47766 4.3018,-3.56802 7.27912,-2.73442 1.63665,0.45823 3.34441,2.17853 3.83211,3.86026 0.45215,1.55917 0.4593,4.9322 0.0132,6.21934 -0.44238,1.27633 -1.90276,2.86995 -3.15093,3.4384 -1.12087,0.51049 -3.76199,0.59753 -5,0.16478 z m 4.35335,-2.13219 c 1.1725,-0.85301 1.77165,-2.43074 1.77165,-4.66521 0,-3.4977 -1.27428,-5.14816 -3.97621,-5.15003 -1.24521,-7.5e-4 -1.42374,0.0753 -2.27574,0.97095 -2.47909,2.60607 -1.74906,8.00615 1.25195,9.26073 0.85533,0.35757 2.44659,0.15231 3.22835,-0.41644 z m 12.09769,1.94662 c -0.57693,-0.26192 -1.19462,-0.70945 -1.37264,-0.99451 -0.47319,-0.75769 -0.7034,-0.63624 -0.7034,0.37109 l 0,0.88938 -1.0625,-0.0769 -1.0625,-0.0769 -0.0655,-9.4375 -0.0655,-9.4375 1.128,0 1.12801,0 0,3.67573 0,3.67574 0.95174,-0.92935 c 1.45529,-1.42105 3.59937,-1.82531 5.49038,-1.03519 2.17997,0.91085 3.34348,2.94774 3.50594,6.13764 0.18185,3.57076 -1.01817,6.23993 -3.29009,7.31802 -1.15372,0.54748 -3.28189,0.51042 -4.58193,-0.0798 z m 3.87286,-1.93698 c 1.20994,-0.90335 1.67629,-2.21267 1.67431,-4.70081 -0.002,-1.85228 -0.10134,-2.43691 -0.56496,-3.30735 -0.66844,-1.25501 -1.7701,-1.89791 -3.25532,-1.8997 -2.22904,-0.003 -3.62136,2.0366 -3.60359,5.27804 0.006,1.06096 0.13925,2.26651 0.29652,2.67901 0.33088,0.86785 1.40467,2.07749 2.12914,2.39849 0.76197,0.33762 2.60447,0.0895 3.3239,-0.44768 z m 18.54948,2.20629 c -1.86228,-0.6131 -3.44885,-1.99972 -4.1147,-3.59613 -1.07708,-2.58233 -0.61053,-6.24681 1.04097,-8.17622 1.37819,-1.61011 2.58007,-2.12531 4.96995,-2.13042 1.81668,-0.004 2.14285,0.0719 3.24617,0.754 1.58966,0.98281 2.55439,2.78141 2.77527,5.17409 l 0.15531,1.68243 -5.251,0.0676 -5.25101,0.0676 0.31527,1.24102 c 0.7775,3.06053 4.17694,4.15377 8.18233,2.6314 0.71943,-0.27345 1.34265,-0.49723 1.38493,-0.4973 0.0423,-7e-5 0.0423,0.46732 0,1.03864 -0.0711,0.96073 -0.152,1.06596 -1.07687,1.40071 -1.15238,0.41708 -5.4492,0.64796 -6.37662,0.34263 z m 5.75022,-8.3446 c -0.004,-0.9561 -0.61391,-2.23694 -1.38837,-2.91694 -0.77938,-0.68429 -1.05158,-0.77046 -2.43143,-0.76963 -1.10114,7.5e-4 -1.78756,0.14347 -2.35622,0.4902 -0.84073,0.51262 -1.82258,2.12817 -1.82258,2.99891 0,0.49203 0.14063,0.50996 4,0.50996 3.03408,0 3.99966,-0.0755 3.9986,-0.3125 z m 9.03567,8.22021 c -1.35892,-0.49177 -2.79831,-1.87796 -3.46723,-3.33908 -0.49774,-1.08719 -0.61704,-1.74772 -0.61704,-3.41625 0,-3.62883 1.51798,-5.94305 4.45911,-6.79806 1.65502,-0.48112 3.94916,-0.38512 5.40339,0.22612 0.83335,0.35027 0.9375,0.49267 0.9375,1.2818 0,1.00261 -0.0855,1.03542 -1.33644,0.51276 -1.20342,-0.50282 -3.73677,-0.48235 -4.83559,0.0391 -0.47992,0.22774 -1.17193,0.8664 -1.53778,1.41924 -0.59752,0.90291 -0.66519,1.23593 -0.66519,3.27343 0,1.83778 0.0975,2.43416 0.51352,3.14241 1.31663,2.24129 4.1829,2.77606 7.42398,1.38511 0.37574,-0.16125 0.4375,-0.0442 0.4375,0.8293 0,1.00907 -0.0102,1.02009 -1.29538,1.40175 -1.52344,0.45242 -4.22887,0.47358 -5.42035,0.0424 z m 13.0119,-0.15507 c -1.0931,-0.25872 -1.98855,-1.13034 -2.29516,-2.23408 -0.13652,-0.49146 -0.24885,-2.83419 -0.24962,-5.20606 l -10e-4,-4.3125 -0.75,0 c -0.69048,0 -0.75,-0.0695 -0.75,-0.875 0,-0.80556 0.0595,-0.875 0.75,-0.875 l 0.75,0 0,-1.875 0,-1.875 1.125,0 1.125,0 0,1.86561 0,1.86563 2.3125,0.0719 2.3125,0.0719 0.0783,0.8125 0.0783,0.8125 -2.39084,0 -2.39084,0 0.004,4.3125 c 0.005,5.56729 -0.0163,5.52175 2.62748,5.6875 l 1.99383,0.125 0.0776,0.9375 0.0776,0.9375 -1.82759,-0.0256 c -1.00517,-0.0141 -2.20056,-0.11387 -2.65642,-0.22177 z m 444.453826,-0.57454 -1.375,-0.3031 -0.0769,-1.0625 c -0.0423,-0.58438 -0.0423,-1.06081 0,-1.05874 0.0423,0.002 0.52687,0.16588 1.07687,0.36403 0.55,0.19814 1.73125,0.36502 2.625,0.37084 2.91097,0.019 4.17425,-1.13031 4.43785,-4.03739 l 0.14018,-1.54594 -0.91223,0.91223 c -1.66228,1.66227 -4.53982,1.89286 -6.49275,0.52029 -2.94557,-2.07022 -3.56872,-7.74102 -1.20865,-10.999 1.74955,-2.4152 5.5937,-2.76406 7.66237,-0.69537 l 0.87323,0.87321 0,-1.0227 0,-1.02271 1.0625,0.0769 1.0625,0.0769 0.079,6.125 c 0.092,7.12598 -0.12627,8.97253 -1.24255,10.51352 -1.34297,1.85389 -4.46755,2.62966 -7.71147,1.91458 z m 4.81005,-7.33836 c 1.20533,-0.6159 1.8131,-2.15821 1.80863,-4.58974 -0.003,-1.75912 -0.10393,-2.30106 -0.58485,-3.14752 -0.73951,-1.30157 -1.67893,-1.85248 -3.15883,-1.85248 -1.47935,0 -2.41855,0.55046 -3.16072,1.85248 -0.82263,1.44318 -0.83123,4.77519 -0.0163,6.32666 1.00092,1.90564 3.04139,2.46867 5.1121,1.4106 z m 31.99945,-1.77724 0.0655,-9.4375 1.0625,-0.0769 1.0625,-0.0769 0,1.04948 0,1.04949 0.86068,-0.84152 c 3.09137,-3.02263 7.95055,-1.12578 8.906,3.47659 0.44275,2.1328 0.18567,4.5164 -0.67043,6.21605 -0.98167,1.94898 -2.1989,2.87957 -3.9572,3.02538 -2.0053,0.1663 -3.04455,-0.11264 -4.15397,-1.11494 l -0.98508,-0.88995 0,3.52909 0,3.52909 -1.128,0 -1.12802,0 0.0655,-9.4375 z m 8.05868,2.08996 c 1.44882,-0.94931 2.1807,-3.88356 1.63012,-6.5356 -0.24062,-1.15918 -0.5152,-1.6926 -1.24895,-2.42635 -0.86275,-0.86273 -1.05595,-0.94051 -2.33625,-0.94051 -1.2049,0 -1.51662,0.10616 -2.28012,0.77654 -2.40065,2.10778 -2.01278,7.94093 0.61837,9.29959 1.02615,0.52989 2.66303,0.45129 3.61683,-0.17367 z m -61.37073,1.78504 c -1.237,-0.8419 -1.8039,-1.76111 -1.93638,-3.13973 -0.15627,-1.62653 0.27268,-2.85 1.32235,-3.77164 1.14481,-1.00513 2.2597,-1.27308 5.30408,-1.27474 l 2.5625,-10e-4 0,-0.64893 c 0,-0.94011 -0.73195,-2.03554 -1.6518,-2.47203 -1.08417,-0.51448 -3.66795,-0.46815 -5.2984,0.095 l -1.32523,0.45773 0.0752,-1.02839 0.0752,-1.02838 1.625,-0.42045 c 4.28567,-1.10885 7.46118,0.0925 8.3884,3.17341 0.25865,0.85943 0.3616,2.50695 0.3616,5.78677 l 0,4.58527 -1.125,0 -1.125,0 0,-0.9009 0,-0.9009 -0.90278,0.79265 c -1.20447,1.05756 -1.81709,1.25915 -3.82649,1.25915 -1.34805,0 -1.86662,-0.1156 -2.52325,-0.5625 z m 5.49975,-1.9355 c 0.96625,-0.68803 1.7397,-2.26589 1.7473,-3.5645 l 0.005,-0.9375 -2.38302,0 c -3.4725,0 -4.61698,0.61272 -4.61698,2.4718 0,1.12822 0.52105,2.05811 1.36895,2.44305 1.0608,0.48162 2.89653,0.2862 3.87825,-0.41285 z m 27.3778,1.91645 c -2.48168,-1.20156 -3.65278,-3.22683 -3.65278,-6.31708 0,-3.71612 1.5446,-6.15623 4.4274,-6.99429 4.47835,-1.30189 8.10038,1.46263 8.10038,6.18265 l 0,1.21027 -5.125,0 -5.125,0 0.005,0.5625 c 0.009,0.88704 0.86605,2.55016 1.62072,3.1438 1.50433,1.1833 4.25738,1.31085 6.8696,0.31828 l 1.28108,-0.48677 -0.0759,1.04359 c -0.0705,0.96914 -0.1473,1.06856 -1.07595,1.39347 -0.55,0.19244 -2.125,0.39464 -3.5,0.44933 -2.25035,0.0895 -2.62483,0.039 -3.75,-0.50575 z m 6.625,-8.17648 c 0,-0.87907 -0.65173,-2.11483 -1.4852,-2.81615 -1.40265,-1.18026 -4.07533,-0.87789 -5.41768,0.61292 -0.4739,0.52633 -1.09712,1.94562 -1.09712,2.49856 0,0.11699 1.8,0.2127 4,0.2127 3.8544,0 4,-0.0185 4,-0.50803 z m 38.1038,8.40267 c -2.17778,-0.9482 -2.96295,-4.30803 -1.50715,-6.44909 0.93622,-1.37693 2.15227,-1.80488 5.52835,-1.94555 l 3,-0.125 -0.0828,-0.75 c -0.11848,-1.07303 -0.70243,-1.86301 -1.67863,-2.27089 -1.2255,-0.51205 -3.6202,-0.44458 -5.1734,0.14576 -0.72335,0.27493 -1.3433,0.49993 -1.37767,0.5 -0.0344,7e-5 -0.0625,-0.43182 -0.0625,-0.95974 0,-1.14026 0.3702,-1.37229 2.88937,-1.81098 2.85303,-0.49684 5.49813,0.19062 6.55133,1.70269 0.92032,1.32125 1.0593,2.26991 1.0593,7.23046 l 0,4.8377 -1,0 c -0.9762,0 -1,-0.0208 -1,-0.875 0,-0.95952 -0.3389,-1.14316 -0.73698,-0.39936 -0.14,0.26161 -0.74197,0.71161 -1.33772,1 -1.26938,0.6145 -3.85075,0.70052 -5.0715,0.169 z m 4.31742,-1.66055 c 1.5303,-0.57818 2.30788,-1.74614 2.69405,-4.04659 l 0.15738,-0.9375 -2.44883,5e-4 c -2.79522,5e-4 -3.97945,0.41392 -4.53487,1.58337 -0.60288,1.26936 0.12175,3.00009 1.46105,3.48968 0.63702,0.23287 1.93315,0.18952 2.67122,-0.0893 z m 28.73565,1.64887 c -2.45652,-0.87565 -3.9087,-2.99142 -4.1001,-5.97369 -0.35042,-5.46025 3.61455,-8.9851 8.50708,-7.5628 2.47285,0.71888 3.93615,2.94757 3.93615,5.99503 l 0,1.4085 -5.14488,0 -5.14485,0 0.17123,0.8125 c 0.26535,1.259 0.87082,2.40304 1.55785,2.94345 1.43777,1.13095 4.23987,1.24386 6.79302,0.27374 l 1.26763,-0.48165 0,1.06803 0,1.06804 -1.4539,0.40794 c -1.7618,0.49434 -5.05798,0.51544 -6.38923,0.0409 z m 6.09313,-8.64538 c 0,-1.87507 -1.52368,-3.23534 -3.625,-3.23626 -2.18475,-0.001 -3.73203,1.17392 -4.03923,3.06704 l -0.1512,0.93164 3.90773,0 3.9077,0 0,-0.76242 z m -149.19153,1.94992 0.0665,-6.8125 1.0625,-0.0769 1.0625,-0.0769 0,6.88937 0,6.88938 -1.12903,0 -1.129,0 0.0665,-6.8125 z m 6.94153,-0.0769 0,-6.88938 1.0625,0.0769 c 1.02092,0.0739 1.06542,0.11182 1.13742,0.96968 l 0.0749,0.8928 0.87012,-0.82064 c 1.4379,-1.35611 3.44423,-1.68585 5.25475,-0.86361 0.83615,0.37974 1.39628,0.9357 2.23203,2.21553 0.024,0.0368 0.53895,-0.42838 1.1443,-1.03372 2.0372,-2.0372 4.96712,-2.2022 6.64952,-0.37447 1.20748,1.31179 1.39818,2.27114 1.52145,7.65381 l 0.11595,5.0625 -1.1273,0 -1.1273,0 -0.10522,-4.9375 c -0.0868,-4.0729 -0.18158,-5.08166 -0.54118,-5.76074 -1.04575,-1.9749 -4.40007,-1.67492 -5.58735,0.49968 -0.37755,0.69153 -0.46277,1.57501 -0.5316,5.51106 l -0.082,4.6875 -1.10553,0 -1.10552,0 0,-4.75803 c 0,-5.11697 -0.17693,-6.06223 -1.27923,-6.8343 -0.84737,-0.59352 -2.48037,-0.51888 -3.4963,0.15981 -1.5465,1.03313 -1.72365,1.739 -1.72407,6.87002 l 0,4.5625 -1.125,0 -1.125,0 0,-6.88938 z m 94.75,-2.61062 0,-9.5 1.125,0 1.125,0 0,9.5 0,9.5 -1.125,0 -1.125,0 0,-9.5 z m 22.25,2.625 0,-6.875 1.125,0 1.125,0 0,1.04904 0,1.04904 0.8125,-0.78637 c 2.0333,-1.96791 5.10672,-2.08048 6.87075,-0.25166 1.28525,1.33244 1.3971,1.88758 1.51153,7.50245 l 0.10574,5.1875 -1.13149,0 -1.1315,0 -0.0812,-4.9375 c -0.0904,-5.49013 -0.27205,-6.21843 -1.69863,-6.80933 -0.948,-0.39267 -2.77632,-0.21224 -3.65,0.3602 -1.32202,0.86624 -1.5961,2.05496 -1.60215,6.94913 l -0.005,4.4375 -1.125,0 -1.125,0 0,-6.875 z m -557.999996,-5 0,-1.375 1.125,0 1.125,0 0,1.375 0,1.375 -1.125,0 -1.125,0 0,-1.375 z m 433.999996,-5.75 0,-1.375 1.125,0 1.125,0 0,1.375 0,1.375 -1.125,0 -1.125,0 0,-1.375 z m -132.5,-29.5 0,-9.375 1.125,0 1.125,0 0,1.01918 0,1.01918 0.67582,-0.80318 c 0.87163,-1.03586 1.97643,-1.48518 3.65183,-1.48518 2.78477,0 4.81802,1.92223 5.42262,5.12652 0.93223,4.94051 -1.58597,9.1125 -5.50027,9.1125 -1.38445,0 -2.9845,-0.69763 -3.70715,-1.61633 l -0.54285,-0.69012 0,3.53371 0,3.53372 -1.125,0 -1.125,0 0,-9.375 z m 8,2.15529 c 1.10152,-0.7601 1.83342,-2.60699 1.83255,-4.62421 0,-2.25729 -0.36445,-3.34661 -1.47615,-4.42411 -0.78398,-0.75985 -1.03635,-0.85697 -2.22695,-0.85697 -1.5954,0 -2.46427,0.54058 -3.2373,2.01417 -0.76538,1.459 -0.73895,5.06272 0.0479,6.53997 1.02598,1.92602 3.33375,2.54227 5.0599,1.35115 z m -33.9969,4.28221 c 0.002,-0.10313 1.39528,-4.6875 3.0968,-10.1875 l 3.0937,-10 1.04995,-0.0779 c 0.9159,-0.068 1.03213,-0.0201 0.91033,0.375 -0.0768,0.24911 -1.19978,3.88419 -2.49548,8.07794 -1.29572,4.19375 -2.65573,8.60937 -3.02225,9.8125 l -0.6664,2.1875 -0.98487,0 c -0.54168,0 -0.98348,-0.0844 -0.98178,-0.1875 z m -38.51075,-2.18024 c -1.50675,-0.48609 -3.04895,-1.84564 -3.75805,-3.31293 -0.44948,-0.9301 -0.58025,-1.63681 -0.59115,-3.19433 -0.0172,-2.46588 0.5487,-4.23102 1.75467,-5.47277 1.25868,-1.29602 2.2355,-1.71718 4.29213,-1.85058 2.24447,-0.14558 3.69945,0.34664 4.82967,1.63389 1.05113,1.19717 1.47145,2.26742 1.65268,4.20811 l 0.15,1.60635 -5.16115,0 -5.16115,0 0.004,0.8125 c 0.005,1.0045 0.88645,2.59157 1.82652,3.28899 1.06178,0.78772 4.31115,0.87807 6.16935,0.17155 0.75625,-0.28753 1.45938,-0.52285 1.5625,-0.52292 0.10313,-7e-5 0.1875,0.44552 0.1875,0.99019 0,0.97676 -0.018,0.99584 -1.3125,1.39386 -1.87397,0.57617 -5.0493,0.6984 -6.44515,0.24809 z m 3.58157,-8.04701 2.4489,-0.16217 -0.16337,-0.77404 c -0.39365,-1.86489 -1.95808,-3.15839 -3.802,-3.14355 -1.81915,0.0146 -3.6938,1.60042 -3.9805,3.36713 l -0.14238,0.87738 1.59523,-0.001 c 0.87735,-7.5e-4 2.69722,-0.0743 4.04412,-0.16346 z m 24.73858,8.01473 -1.5625,-0.38454 0,-1.10772 c 0,-0.60925 0.0281,-1.10767 0.0625,-1.1076 0.0344,7e-5 0.68125,0.23682 1.4375,0.5261 1.90317,0.72801 4.7543,0.75407 5.69825,0.0521 0.5092,-0.37868 0.6956,-0.7565 0.7529,-1.52608 0.0969,-1.30191 -0.25118,-1.54287 -3.54338,-2.45268 -2.8208,-0.77954 -3.77817,-1.43979 -4.16367,-2.87149 -0.53023,-1.9691 0.26492,-3.6654 2.11125,-4.50396 1.19845,-0.54431 4.65785,-0.61918 6.26965,-0.13569 0.93612,0.2808 1.00485,0.366 1.0758,1.33371 l 0.0758,1.03374 -1.5758,-0.49723 c -2.69793,-0.85131 -5.62928,-0.28087 -5.91045,1.15015 -0.2703,1.37582 0.55097,1.99329 3.69465,2.77778 3.21495,0.80226 4.31012,1.77555 4.34155,3.8583 0.0233,1.53976 -0.6759,2.7134 -2.0791,3.49021 -1.39735,0.77359 -4.36593,0.93564 -6.68495,0.36492 z m 22.83592,0.1397 c -1.88812,-0.5648 -3.14027,-2.92446 -2.6678,-5.02738 0.3252,-1.44729 0.96215,-2.23303 2.3897,-2.94793 1.01838,-0.50999 1.68525,-0.62846 4.0464,-0.71884 l 2.82708,-0.10821 -0.15165,-0.65616 c -0.38445,-1.66356 -1.44605,-2.50647 -3.38528,-2.68789 -1.2028,-0.11252 -1.9514,0.022 -4.41147,0.79245 -0.54563,0.1709 -0.57493,0.12464 -0.5,-0.7896 0.0725,-0.88405 0.16927,-1.002 1.0796,-1.31553 1.4316,-0.49305 4.86352,-0.65567 5.99018,-0.28384 1.33262,0.43981 2.53432,1.5984 3.04512,2.93587 0.3659,0.95812 0.44465,1.98655 0.45373,5.92585 l 0.011,4.76653 -1.0625,0.0769 -1.0625,0.0769 0,-1.04347 0,-1.04346 -0.9823,0.88745 c -1.43753,1.29871 -3.6379,1.7531 -5.61928,1.16041 z m 4.47658,-2.21473 c 0.94507,-0.53619 1.7806,-2.03959 2.01277,-3.62171 l 0.17928,-1.22176 -2.59603,0.11769 c -3.09467,0.1403 -4.04217,0.52643 -4.4696,1.82148 -0.32235,0.97676 -0.0205,2.3448 0.6379,2.89124 0.94268,0.78235 2.86925,0.78829 4.23568,0.013 z m 28.1294,1.98563 c -3.37755,-1.16583 -5.07135,-5.16888 -3.88188,-9.17429 0.55475,-1.86802 1.61845,-3.17278 3.2289,-3.96071 1.22835,-0.60098 1.616,-0.66865 3.373,-0.58886 1.72783,0.0785 2.1251,0.18851 3.06473,0.8489 1.37185,0.96416 2.36633,2.91159 2.57983,5.05188 l 0.15585,1.5625 -5.12266,0 c -2.81747,0 -5.18362,0.0986 -5.2581,0.21914 -0.0745,0.12054 0.0287,0.77195 0.22935,1.4476 0.39208,1.32021 1.32448,2.39007 2.45535,2.81735 1.1731,0.44323 4.01893,0.32175 5.48105,-0.23397 0.72335,-0.27493 1.34978,-0.49993 1.39205,-0.5 0.0423,-7e-5 0.0423,0.478 0,1.06238 l -0.0769,1.0625 -1.625,0.42044 c -2.1606,0.55903 -4.31128,0.54652 -5.9956,-0.0349 z m 3.77357,-7.92231 2.40295,-0.15915 -0.22997,-1.02706 c -0.43888,-1.9598 -2.22388,-3.10535 -4.3435,-2.7875 -1.7702,0.26546 -3.35745,1.98033 -3.35745,3.62741 0,0.45665 0.158,0.5079 1.5625,0.50674 0.85937,-7.5e-4 2.64382,-0.0729 3.96547,-0.16044 z m 31.05993,8.13862 c -0.99873,-0.28933 -2.23318,-1.68437 -2.57288,-2.90756 -0.14422,-0.51938 -0.26287,-3.16621 -0.26362,-5.88183 l -10e-4,-4.9375 1.11097,0 1.11095,0 0.0765,5.27099 0.0765,5.27099 0.84725,0.75654 c 0.78007,0.69655 0.9632,0.74816 2.30907,0.6508 1.1103,-0.0803 1.61865,-0.25225 2.114,-0.71503 1.31165,-1.22539 1.43988,-1.77497 1.55683,-6.67179 l 0.10892,-4.5625 0.96948,0 0.96945,0 0,6.875 0,6.875 -1,0 -1,0 0,-1.04905 0,-1.04904 -0.8125,0.78637 c -1.46783,1.42063 -3.51648,1.89207 -5.5996,1.2886 z m 26.34638,-0.15744 c -1.72053,-0.6422 -2.79468,-1.6093 -3.58768,-3.2301 -0.93563,-1.91239 -0.97978,-4.78222 -0.10437,-6.78627 0.67927,-1.55502 2.29782,-3.08613 3.70947,-3.50908 1.4566,-0.4364 3.76322,-0.35574 4.92545,0.17224 1.99708,0.90726 3.37285,3.33592 3.37285,5.95413 l 0,1.07963 -5.125,0 -5.125,0 0.005,0.6875 c 0.009,1.08545 0.85923,2.68204 1.77788,3.33723 0.67565,0.48189 1.22492,0.61787 2.78532,0.68952 1.78625,0.082 2.7815,-0.0969 4.75745,-0.8551 0.35508,-0.13625 0.42385,1.4e-4 0.42385,0.8406 0,0.97235 -0.0366,1.01594 -1.1875,1.41532 -1.8483,0.64138 -5.18205,0.74418 -6.62822,0.20438 z m 6.02772,-8.19812 c 0.28048,-0.28047 -0.5726,-2.27405 -1.23978,-2.89727 -1.23117,-1.1501 -3.60592,-1.18312 -5.18677,-0.0721 -0.6292,0.44218 -1.52088,2.16111 -1.52995,2.94939 -0.005,0.45552 0.1658,0.46894 3.91645,0.30722 2.15707,-0.093 3.9751,-0.22226 4.04005,-0.28721 z m -161.29533,8.212 c -0.0917,-0.0917 -0.16667,-4.36667 -0.16667,-9.5 l 0,-9.33333 1.125,0 1.125,0 0,9.5 0,9.5 -0.95833,0 c -0.5271,0 -1.03334,-0.075 -1.125,-0.16667 z m 22.08333,-6.70833 0,-6.875 1.125,0 1.125,0 0,1.00833 0,1.00834 0.8585,-0.8585 c 1.09548,-1.09547 2.31375,-1.49197 4.17135,-1.35761 1.75682,0.12708 2.58287,0.65591 3.47015,2.22158 0.6034,1.06476 0.6279,1.28637 0.70897,6.41536 l 0.084,5.3125 -1.12808,0 -1.12805,0 -0.0809,-5.10738 c -0.0749,-4.72375 -0.12028,-5.16035 -0.6048,-5.8125 -1.56858,-2.11123 -5.36746,-1.23601 -6.10133,1.40567 -0.13585,0.48906 -0.24765,2.82983 -0.2484,5.20171 l -0.001,4.3125 -1.125,0 -1.125,0 0,-6.875 z m 84,0.0144 0,-6.88938 1.125,0 1.125,0 0,0.92178 0,0.92177 0.6875,-0.64323 c 1.09372,-1.02331 2.17577,-1.45032 3.67507,-1.45032 l 1.38743,0 0,1.07435 0,1.07435 -1.5625,-0.0879 c -1.23793,-0.0696 -1.72875,0.0165 -2.36287,0.41459 -1.49793,0.9405 -1.6858,1.63803 -1.82463,6.77463 l -0.125,4.625 -1.0625,0.0769 -1.0625,0.0769 0,-6.88937 z m 13.5,6.63371 c -2.80503,-0.42643 -3.08965,-1.05547 -3.20623,-7.08559 l -0.0906,-4.6875 -0.7266,0 c -0.6637,0 -0.72657,-0.0757 -0.72657,-0.875 0,-0.80279 0.061,-0.875 0.73947,-0.875 l 0.7395,0 0.073,-1.9375 0.073,-1.9375 1.0625,-0.0769 1.0625,-0.0769 0,2.01437 0,2.01438 2.375,0 2.375,0 0,0.875 0,0.875 -2.375,0 -2.375,0 0,4.10872 c 0,3.96973 0.19205,5.2904 0.82815,5.69486 0.16327,0.10382 1.11927,0.19048 2.12445,0.19259 l 1.82757,0.004 -0.0776,0.9375 -0.0776,0.9375 -1.25,0.0345 c -0.6875,0.019 -1.75625,-0.0424 -2.375,-0.13647 z m 22.5,-6.63371 0,-6.88938 1.125,0 1.125,0 0,0.92178 0,0.92177 0.6875,-0.64323 c 1.09372,-1.02331 2.17577,-1.45032 3.67507,-1.45032 l 1.38743,0 0,1.0625 0,1.0625 -1.85485,0 c -1.6337,0 -1.93453,0.0745 -2.52297,0.625 -1.17388,1.09815 -1.2416,1.41277 -1.37218,6.375 l -0.125,4.75 -1.0625,0.0769 -1.0625,0.0769 0,-6.88938 z"
     inkscape:connector-curvature="0" />
  <path
     style="fill:#000000"
     d="m 552.5167,277.45831 c -0.0917,-0.0917 -0.16667,-0.76665 -0.16667,-1.5 l 0,-1.33332 1.5,0 1.5,0 0,1.5 0,1.5 -1.33333,0 c -0.73335,0 -1.40835,-0.075 -1.5,-0.16668 z"
     id="path9635" />
  <path
     style="fill:#000000"
     d="m 552.5167,283.45831 c -0.0917,-0.0917 -0.16667,-0.76665 -0.16667,-1.5 l 0,-1.33332 1.5,0 1.5,0 0,1.5 0,1.5 -1.33333,0 c -0.73335,0 -1.40835,-0.075 -1.5,-0.16668 z"
     id="path9633" />
  <path
     style="fill:#000000"
     d="m 552.5167,289.45832 c -0.0917,-0.0917 -0.16667,-0.76665 -0.16667,-1.5 l 0,-1.33332 1.5,0 1.5,0 0,1.5 0,1.5 -1.33333,0 c -0.73335,0 -1.40835,-0.075 -1.5,-0.16668 z"
     id="path9631" />
  <path
     style="fill:#000000"
     d="m 552.5167,295.45832 c -0.0917,-0.0917 -0.16667,-0.76665 -0.16667,-1.5 l 0,-1.33332 1.5,0 1.5,0 0,1.5 0,1.5 -1.33333,0 c -0.73335,0 -1.40835,-0.075 -1.5,-0.16668 z"
     id="path9627" />
  <path
     style="fill:#000000"
     d="m 552.5167,301.45832 c -0.0917,-0.0917 -0.16667,-0.76665 -0.16667,-1.5 l 0,-1.33332 1.5,0 1.5,0 0,1.5 0,1.5 -1.33333,0 c -0.73335,0 -1.40835,-0.075 -1.5,-0.16668 z"
     id="path9625" />
  <path
     style="fill:#000000"
     d="m 551.5365,322.10357 c -4.3827,-1.03292 -7.68647,-5.21442 -7.68647,-9.72857 0,-8.78575 10.7736,-13.25023 16.98527,-7.03855 2.2365,2.2365 3.35928,5.66037 2.81533,8.58525 -1.07692,5.7909 -6.5564,9.49175 -12.11412,8.18187 z"
     id="path9577" />
  <path
     style="fill:#000000"
     d="m 552.5167,325.45832 c -0.0917,-0.0917 -0.16667,-0.76665 -0.16667,-1.5 l 0,-1.33332 1.5,0 1.5,0 0,1.5 0,1.5 -1.33333,0 c -0.73335,0 -1.40835,-0.075 -1.5,-0.16668 z"
     id="path9575" />
  <path
     style="fill:#323232;fill-opacity:1"
     d="m 588.89195,326.99162 c -3.49614,-0.75887 -7.1997,-3.29437 -9.18842,-6.29052 -0.5217,-0.78595 -1.2849,-2.39023 -1.696,-3.56505 -1.46583,-4.1889 -0.84405,-9.21368 1.60125,-12.94058 2.68097,-4.08602 7.67938,-6.8118 12.49125,-6.8118 2.03225,0 4.61913,0.62365 6.71457,1.61878 2.70771,1.2859 5.45028,4.08535 6.7682,6.90855 1.05193,2.25345 1.51723,4.23577 1.51723,6.464 0,8.18082 -6.9482,15.06047 -15.125,14.97577 -0.825,-0.009 -2.21237,-0.17015 -3.08308,-0.35915 z"
     id="path9569" />
  <path
     style="fill:#323232;fill-opacity:1"
     d="m 511.9432,326.89722 c -3.79535,-1.03107 -6.7788,-3.10872 -8.79692,-6.12607 -1.94008,-2.90063 -2.4231,-4.6069 -2.41225,-8.52115 0.007,-2.71915 0.099,-3.49225 0.5596,-4.73305 1.71397,-4.61678 5.16005,-7.88795 10.0564,-9.546 1.01172,-0.3426 2.10155,-0.4656 4.125,-0.4656 2.02345,0 3.11328,0.123 4.125,0.4656 4.3092,1.45922 7.42055,4.06225 9.1886,7.68747 1.19892,2.45828 1.5614,4.01748 1.5614,6.71658 0,2.6991 -0.36248,4.2583 -1.5614,6.71657 -1.73705,3.56163 -4.72243,6.1071 -8.86978,7.56278 -2.14132,0.75157 -5.70387,0.86007 -7.97565,0.24287 z"
     id="path9567" />
  <path
     style="fill:#000000"
     d="m 552.5167,331.45831 c -0.0917,-0.0917 -0.16667,-0.76665 -0.16667,-1.5 l 0,-1.33331 1.5,0 1.5,0 0,1.49999 0,1.5 -1.33333,0 c -0.73335,0 -1.40835,-0.075 -1.5,-0.16668 z"
     id="path9565" />
  <path
     style="fill:#646464;fill-opacity:1"
     d="m 641.22503,336.97809 c -4.97873,-0.87633 -9.29755,-3.07075 -12.96178,-6.58595 -3.22552,-3.09434 -5.47532,-6.77854 -6.83817,-11.19799 -0.63205,-2.0496 -0.67662,-2.49885 -0.67662,-6.81915 0,-4.3203 0.0446,-4.76955 0.67662,-6.81915 3.82355,-12.399 15.56083,-19.8395 28.09075,-17.8073 5.10805,0.82847 9.4331,3.01827 13.29898,6.7334 3.18207,3.05797 5.33652,6.6038 6.69457,11.01805 0.65027,2.11365 0.69223,2.5303 0.69223,6.875 0,4.3447 -0.042,4.76135 -0.69223,6.875 -1.29403,4.20612 -3.07253,7.2429 -6.09383,10.40527 -5.72785,5.99525 -14.07792,8.75077 -22.19052,7.32282 z"
     id="path9563" />
  <path
     style="fill:#646464;fill-opacity:1"
     d="m 458.47503,337.11684 c -2.32975,-0.35883 -5.5426,-1.43368 -7.87723,-2.63533 -6.1438,-3.16222 -10.84465,-9.09826 -12.65597,-15.98151 -0.5653,-2.14825 -0.65788,-3.01005 -0.65788,-6.125 0,-3.11495 0.0926,-3.97675 0.65788,-6.125 3.54715,-13.4795 17.0409,-21.4506 30.50115,-18.01778 14.67472,3.74258 22.55795,19.8045 16.66622,33.95708 -2.87152,6.89775 -9.32667,12.44076 -16.7072,14.34649 -2.7295,0.7048 -7.36275,0.97597 -9.92697,0.58105 z"
     id="path9561" />
  <path
     style="fill:#000000"
     d="m 552.5167,337.45826 c -0.0917,-0.0917 -0.16667,-0.76665 -0.16667,-1.5 l 0,-1.33332 1.5,0 1.5,0 0,1.5 0,1.5 -1.33333,0 c -0.73335,0 -1.40835,-0.075 -1.5,-0.16668 z"
     id="path9543" />
  <path
     id="path9517"
     style="fill:#000000"
     d="m 250.81649,373.7787 c -3.46947,-0.91165 -5.22891,-3.2361 -5.22891,-6.90805 0,-3.12669 1.19973,-5.15064 3.79901,-6.40892 1.39202,-0.67387 4.86714,-0.89112 6.6799,-0.4176 l 1.25,0.32653 0.0739,1.6875 c 0.0407,0.92813 0.007,1.6875 -0.0749,1.6875 -0.0819,0 -0.50888,-0.18678 -0.94892,-0.41503 -1.20453,-0.62485 -3.70434,-0.59455 -4.57711,0.0555 -1.32242,0.9849 -1.66048,1.68362 -1.66048,3.43204 0,1.8656 0.45994,2.8574 1.65889,3.57715 0.99713,0.5986 3.44673,0.60802 4.5787,0.0177 0.44004,-0.22953 0.86192,-0.4173 0.9375,-0.4173 0.0756,0 0.13741,0.73402 0.13741,1.6312 0,1.54677 -0.0356,1.64527 -0.6875,1.9035 -0.86223,0.34155 -4.93459,0.51187 -5.9375,0.24835 z m 35.16202,-0.24523 c -2.59797,-0.9286 -4.0717,-2.59607 -4.50781,-5.10037 -0.6362,-3.65334 0.87544,-6.77484 3.91759,-8.08969 1.27773,-0.55225 5.08694,-0.71238 6.67819,-0.28075 l 1.25,0.33907 0.0737,1.80775 0.0737,1.80773 -0.98823,-0.50415 c -2.11942,-1.08125 -4.34548,-0.88853 -5.66676,0.4906 -0.6504,0.67885 -0.74291,0.97067 -0.81361,2.56646 -0.089,2.00903 0.32997,3.01023 1.6109,3.84945 0.98695,0.6466 3.38282,0.57758 4.77286,-0.1375 l 1.0625,-0.54657 0,1.73062 c 0,1.72455 -0.003,1.73165 -0.8125,2.02933 -0.44688,0.1643 -1.825,0.34767 -3.0625,0.4075 -1.78516,0.0863 -2.52642,0.01 -3.58797,-0.36948 z m 23.29608,0.0152 c -1.845,-0.66015 -2.94618,-1.59832 -3.71113,-3.16182 -1.27553,-2.60708 -1.03649,-5.80374 0.60327,-8.06734 2.07784,-2.86838 7.95398,-3.45338 10.82136,-1.07733 1.25617,1.04093 2.17643,3.01338 2.36924,5.07812 l 0.15645,1.67535 -5.16115,0 c -3.38117,0 -5.16115,0.089 -5.16115,0.25802 0,0.14193 0.15989,0.6407 0.35531,1.1084 0.64102,1.53418 2.62292,2.1033 5.34677,1.53535 0.95834,-0.19982 2.20492,-0.59925 2.77018,-0.88762 l 1.02774,-0.5243 0,1.72212 0,1.72213 -1.5625,0.44535 c -2.33775,0.66627 -6.23652,0.75243 -7.85439,0.17358 z m 5.575,-8.42416 c 0.26133,-0.681 -0.73984,-1.98045 -1.81584,-2.3568 -0.91616,-0.32048 -1.09924,-0.30895 -1.98818,0.125 -0.94624,0.4619 -1.99046,1.93005 -1.70327,2.39472 0.0708,0.11453 1.30683,0.20823 2.74678,0.20823 2.08447,0 2.64712,-0.0756 2.76051,-0.37115 z m 19.97166,8.44196 c -1.7957,-0.62082 -3.47302,-2.32907 -3.98034,-4.0537 -1.24141,-4.22018 0.56364,-8.31859 4.13022,-9.37776 2.85569,-0.84805 6.34956,-0.30768 8.18859,1.26648 1.56747,1.34167 2.13587,2.8039 2.12602,5.46916 -0.0122,3.30663 -0.95855,5.0399 -3.43933,6.2994 -1.69072,0.8584 -5.12797,1.05235 -7.02516,0.39643 z m 4.23665,-2.92612 c 1.22339,-0.51118 1.74538,-1.6386 1.74538,-3.7697 0,-1.18679 -0.14004,-2.01012 -0.43513,-2.55827 -1.23407,-2.2923 -4.46966,-1.87675 -5.17566,0.6647 -0.73305,2.63884 0.16114,5.42524 1.87399,5.83962 0.86843,0.21008 1.11984,0.18782 1.99142,-0.17635 z m 33.12122,3.03065 c -3.47921,-0.9868 -5.23516,-3.69463 -4.92241,-7.59085 0.34118,-4.25037 3.45754,-6.57007 8.42098,-6.26822 1.17633,0.0715 2.44817,0.25185 2.82629,0.4007 0.65741,0.2588 0.6875,0.34613 0.6875,1.99548 l 0,1.72482 -0.94033,-0.46525 c -2.5083,-1.241 -5.15873,-0.6596 -6.06157,1.3297 -0.94733,2.08727 -0.3341,4.74264 1.29475,5.60639 1.17536,0.62325 3.31141,0.59153 4.64465,-0.069 l 1.0625,-0.5264 0,1.72483 c 0,1.64895 -0.0302,1.7368 -0.6875,1.99715 -1.06655,0.42247 -5.02111,0.51042 -6.32486,0.14065 z m 14.34547,-0.13813 c -1.84868,-0.63885 -2.94315,-1.57632 -3.73871,-3.20237 -0.58656,-1.1989 -0.6944,-1.73623 -0.6944,-3.45985 0,-1.72912 0.10718,-2.25959 0.70229,-3.47597 1.16408,-2.3793 3.52074,-3.64902 6.77271,-3.64902 3.2332,0 5.6124,1.35842 6.78679,3.875 0.45832,0.98212 0.58332,1.67858 0.58332,3.24999 0,2.42995 -0.64705,4.0316 -2.19098,5.4234 -1.82385,1.6441 -5.46186,2.19232 -8.22102,1.23883 z m 4.7324,-3.21405 c 0.76012,-0.6766 1.18449,-1.90327 1.18449,-3.42387 0,-1.56389 -0.30721,-2.53292 -1.05664,-3.33297 -1.20854,-1.29015 -3.65245,-0.82365 -4.34298,0.82905 -0.49027,1.17336 -0.49046,3.78542 -2.5e-4,4.95839 0.65237,1.56133 2.95551,2.09098 4.21549,0.9694 z m 40.05949,3.178 c -2.14368,-1.06835 -2.6117,-2.7545 -2.61998,-9.43871 l -0.005,-4.0625 2.23515,0 2.23513,0 0.0774,4.89758 c 0.0758,4.80161 0.0889,4.90691 0.66755,5.37499 1.33723,1.08172 3.50428,0.1526 4.0261,-1.72616 0.14075,-0.50677 0.25655,-2.63704 0.2573,-4.73391 l 0.002,-3.8125 2.125,0 2.125,0 0,6.87499 0,6.875 -2.125,0 -2.125,0 0,-1.04905 0,-1.04903 -0.8125,0.78638 c -1.63198,1.57948 -4.14275,2.0197 -6.0625,1.06293 z m 18,0.34233 c -0.275,-0.0542 -1.09063,-0.21792 -1.8125,-0.36395 l -1.3125,-0.2654 0,-1.63382 c 0,-1.4586 0.0469,-1.61433 0.4375,-1.45203 1.45893,0.60625 2.919,0.90558 4.6039,0.94385 1.56727,0.0356 2.01135,-0.0424 2.4375,-0.42805 0.61343,-0.55515 0.67097,-1.2085 0.14492,-1.64507 -0.20692,-0.17173 -1.5015,-0.51433 -2.87684,-0.76138 -2.97348,-0.53407 -4.04383,-1.1156 -4.59675,-2.49749 -0.8487,-2.12115 -0.16438,-4.32297 1.64347,-5.28798 0.96735,-0.51634 1.41063,-0.57619 4.2063,-0.5679 1.73975,0.005 3.59598,0.14798 4.1875,0.32216 l 1.0625,0.31285 0,1.60427 0,1.60427 -1.04462,-0.36857 c -1.61085,-0.56833 -4.29083,-0.91618 -5.21458,-0.67683 -0.4497,0.11653 -0.9688,0.43955 -1.15357,0.71783 -0.6094,0.91782 0.0372,1.34435 2.80087,1.84772 4.0431,0.7364 4.88005,1.24347 5.36093,3.24799 0.58397,2.43428 -0.56135,4.38195 -3.00328,5.10713 -1.22352,0.36335 -4.55395,0.49975 -5.87075,0.24045 z m 24.25,-0.2883 c -4.57412,-1.51455 -5.93788,-8.26619 -2.3869,-11.81714 1.4188,-1.4188 2.99715,-1.9881 5.5119,-1.9881 4.6403,0 7.5,2.7167 7.5,7.12499 0,3.20445 -1.7459,5.82142 -4.4662,6.69452 -1.68678,0.54138 -4.50035,0.53488 -6.1588,-0.0143 z m 4.24142,-2.91055 c 1.22338,-0.51117 1.74538,-1.6386 1.74538,-3.7697 0,-1.18679 -0.14002,-2.01012 -0.43513,-2.55826 -0.46225,-0.85856 -1.55902,-1.56668 -2.42667,-1.56668 -0.86765,0 -1.96443,0.70812 -2.42668,1.56673 -0.60102,1.11642 -0.59429,4.01228 0.012,5.13964 0.40821,0.75907 1.56295,1.5095 2.36026,1.53384 0.1763,0.005 0.70319,-0.15012 1.1709,-0.34552 z m -216.36641,-3.76965 0,-6.87499 2.125,0 2.125,0 0,6.87499 0,6.875 -2.125,0 -2.125,0 0,-6.875 z m 8.5,0 0,-6.87499 2.125,0 2.125,0 0,1 c 0,0.55 0.0635,1 0.14114,1 0.0776,0 0.41833,-0.32943 0.75711,-0.73205 0.79096,-0.94 2.45459,-1.573 3.86876,-1.47205 l 1.10798,0.0791 0.0729,1.9281 0.0728,1.9281 -0.77688,-0.27083 c -1.07991,-0.37645 -3.13455,-0.13672 -3.77193,0.44008 -1.11207,1.00642 -1.30031,1.78915 -1.42179,5.91204 l -0.11602,3.9375 -2.09204,0 -2.09203,0 0,-6.875 z m 27.24999,-2.62499 0,-9.5 2.125,0 2.125,0 0,9.5 0,9.49999 -2.125,0 -2.125,0 0,-9.49999 z m 52,4.26436 0,-5.23561 -1.0625,-0.0769 -1.0625,-0.0769 -0.0744,-1.5625 -0.0744,-1.5625 1.10597,0 1.10597,0 0.11489,-1.38538 c 0.1218,-1.46872 0.60446,-2.33652 1.79324,-3.22417 0.587,-0.4383 1.1366,-0.52875 3.67206,-0.60427 l 2.98173,-0.0889 0,1.40135 0,1.40133 -1.625,0 c -1.88104,0 -2.625,0.49597 -2.625,1.75 l 0,0.75 1.875,0 1.875,0 0,1.625 0,1.625 -1.875,0 -1.875,0 0,5.24999 0,5.25 -2.125,0 -2.125,0 0,-5.23563 z m 51,-1.62965 0,-6.88471 2.25,0 2.25,0 0,0.89722 0,0.89723 0.8125,-0.6851 c 1.13629,-0.95815 2.21747,-1.35935 3.66319,-1.35935 1.51956,0 2.43408,0.32647 3.34269,1.1933 1.16854,1.11482 1.43162,2.5807 1.43162,7.97706 l 0,4.82963 -2.09492,0 -2.09492,0 -0.10282,-4.78045 -0.10282,-4.78044 -0.6912,-0.59455 c -1.10631,-0.9516 -2.71322,-0.66953 -3.59732,0.63148 -0.36571,0.53817 -0.46234,1.39595 -0.566,5.02396 l -0.125,4.375 -2.1875,0.0722 -2.1875,0.0722 0,-6.88475 z m 18.5,1.61528 0,-5.24999 -1.125,0 -1.125,0 0,-1.625 0,-1.625 1.125,0 1.125,0 0,-1.1914 c 0,-1.4907 0.6667,-2.77758 1.77827,-3.43245 0.67688,-0.39875 1.41091,-0.517 3.65923,-0.58948 l 2.8125,-0.0907 0,1.402 0,1.40198 -1.44438,0 c -1.84366,0 -2.55562,0.45665 -2.55562,1.63917 l 0,0.86083 1.875,0 1.875,0 0,1.625 0,1.625 -1.875,0 -1.875,0 0,5.24999 0,5.25 -2.125,0 -2.125,0 0,-5.25 z m 43,-1.625 0,-6.87499 2.125,0 2.125,0 0,6.87499 0,6.875 -2.125,0 -2.125,0 0,-6.875 z m 25.75,0 0,-6.87499 2.125,0 2.125,0 0,1.04905 0,1.04902 0.8125,-0.78637 c 1.67982,-1.6258 4.16465,-2.0269 6.19027,-0.9992 0.83733,0.4248 1.26335,0.86662 1.74048,1.8049 0.60527,1.19032 0.63527,1.46017 0.7161,6.43749 l 0.0844,5.1951 -2.27185,0 -2.27185,0 0,-4.76138 c 0,-4.72191 -0.005,-4.76641 -0.61363,-5.37499 -1.34552,-1.3455 -3.5028,-0.41097 -4.1114,1.78108 -0.1497,0.53917 -0.27282,2.63966 -0.27357,4.66779 l -0.002,3.6875 -2.125,0 -2.125,0 0,-6.875 z m -248.24999,-7.99999 0,-3.375 1.375,0 1.375,0 0,3.375 0,3.375 -1.375,0 -1.375,0 0,-3.375 z m 266.24999,0 0,-3.375 1.5,0 1.5,0 0,3.375 0,3.375 -1.5,0 -1.5,0 0,-3.375 z m -243.99999,-2.375 0,-1.75 2.125,0 2.125,0 0,1.75 0,1.75 -2.125,0 -2.125,0 0,-1.75 z m 200.24999,0 0,-1.75 2.125,0 2.125,0 0,1.75 0,1.75 -2.125,0 -2.125,0 0,-1.75 z"
     inkscape:connector-curvature="0" />
  <path
     style="fill:#000000"
     d="m 552.51671,343.45831 c -0.0917,-0.0917 -0.16668,-0.76665 -0.16668,-1.5 l 0,-1.33332 1.5,0 1.5,0 0,1.5 0,1.5 -1.33332,0 c -0.73335,0 -1.40835,-0.075 -1.5,-0.16668 z"
     id="path9515" />
  <path
     style="fill:#000000"
     d="m 552.51671,349.45831 c -0.0917,-0.0917 -0.16668,-0.76665 -0.16668,-1.5 l 0,-1.33332 1.5,0 1.5,0 0,1.5 0,1.5 -1.33332,0 c -0.73335,0 -1.40835,-0.075 -1.5,-0.16668 z"
     id="path9513" />
  <path
     style="fill:#000000"
     d="m 552.51671,355.45831 c -0.0917,-0.0917 -0.16668,-0.76665 -0.16668,-1.5 l 0,-1.33332 1.5,0 1.5,0 0,1.5 0,1.5 -1.33332,0 c -0.73335,0 -1.40835,-0.075 -1.5,-0.16668 z"
     id="path9511" />
  <path
     style="fill:#000000"
     d="m 552.51671,361.45831 c -0.0917,-0.0917 -0.16668,-0.76665 -0.16668,-1.5 l 0,-1.33332 1.5,0 1.5,0 0,1.5 0,1.5 -1.33332,0 c -0.73335,0 -1.40835,-0.075 -1.5,-0.16668 z"
     id="path9509" />
  <path
     style="fill:#969696;fill-opacity:1"
     d="m 727.97451,362.00557 c -11.77593,-1.5061 -21.88468,-6.53128 -30.00698,-14.91683 -5.36692,-5.54085 -9.0389,-11.54295 -11.46717,-18.74391 -5.36065,-15.89671 -2.47075,-33.12896 7.81402,-46.59484 1.71663,-2.24757 5.88433,-6.4575 8.28565,-8.3696 12.50948,-9.96087 28.5448,-13.33072 44.125,-9.27297 15.89275,4.13917 28.94313,16.34212 34.36595,32.13443 5.65835,16.4781 2.24033,34.74859 -9.02807,48.25814 -7.65445,9.17685 -18.38765,15.256 -30.46288,17.25383 -3.37535,0.55845 -10.2364,0.6852 -13.62552,0.25175 z"
     id="path9507" />
</svg>
